<?xml version="1.0" encoding="UTF-8" standalone="no"?>
<!-- Created with Inkscape (http://www.inkscape.org/) -->

<svg
   version="1.1"
   id="svg2"
   width="1023.948"
   height="624"
   viewBox="0 0 1023.948 624"
   sodipodi:docname="hlogo.ai"
   xmlns:inkscape="http://www.inkscape.org/namespaces/inkscape"
   xmlns:sodipodi="http://sodipodi.sourceforge.net/DTD/sodipodi-0.dtd"
   xmlns="http://www.w3.org/2000/svg"
   xmlns:svg="http://www.w3.org/2000/svg">
  <defs
     id="defs6">
    <clipPath
       clipPathUnits="userSpaceOnUse"
       id="clipPath18">
      <path
         d="M 0,468 H 767.961 V 0 H 0 Z"
         id="path16" />
    </clipPath>
  </defs>
  <sodipodi:namedview
     id="namedview4"
     pagecolor="#ffffff"
     bordercolor="#000000"
     borderopacity="0.25"
     inkscape:showpageshadow="2"
     inkscape:pageopacity="0.0"
     inkscape:pagecheckerboard="0"
     inkscape:deskcolor="#d1d1d1" />
  <g
     id="g8"
     inkscape:groupmode="layer"
     inkscape:label="hlogo"
     transform="matrix(1.3333333,0,0,-1.3333333,0,624)">
    <path
       d="M 0,0 H 767.961 V 468 H 0 Z"
       style="fill:#a8a5a5;fill-opacity:1;fill-rule:nonzero;stroke:none"
       id="path10" />
    <g
       id="g12">
      <g
         id="g14"
         clip-path="url(#clipPath18)">
        <path
           d="M 767.961,0 H 0 v 468 h 767.961 z"
           style="fill:none;stroke:#000000;stroke-width:1;stroke-linecap:butt;stroke-linejoin:miter;stroke-miterlimit:10;stroke-dasharray:none;stroke-opacity:1"
           id="path20" />
        <g
           id="g22"
           transform="translate(354.0586,157.4463)">
          <path
             d="m 0,0 c 2.019,-0.38 8.035,-1.351 15.998,-1 9.838,0.434 21.241,4.822 24.997,9.999 2.245,3.095 2.176,7.893 4,11.998 5.075,11.431 13.526,20.42 18.997,29.997 5.609,2.722 10.456,6.208 14.998,9.998 1.167,11.292 -2.584,16.44 -7.096,21.044 -3.936,4.017 -8.726,8.107 -12.125,11.375 -2.133,2.05 -4.521,5.243 -7.375,5.938 0,0 -4.064,0.626 -6.939,-0.187 14.19,22.805 25.615,49.741 24.536,87.815 59.967,14.356 117.861,30.787 177.978,44.994 5.769,9.52 13.661,22.518 17.997,32.996 0.191,0.46 2.116,4.663 2.116,4.663 l -2.116,-0.664 C 193.423,244.857 119.258,218.408 48.082,194.911 58.915,164.479 49.411,119.466 33.996,95.988 24.596,94.722 18.76,89.893 9.999,87.989 c 0.387,-6.278 3.52,-8.828 3.999,-15.998 3.521,-4.33 8.396,-5.83 10.999,-11.999 -2.258,-0.886 -5.617,2.133 -7.04,1.794 0,0 -0.646,-0.827 -0.563,-2.125 1.386,-6.625 9,-7.25 10.603,-13.667 -2.465,-0.903 -6.329,2.415 -7.925,1.83 -0.239,-0.088 -0.411,-1.565 -0.428,-2.288 -0.761,-6.093 4.971,-5.59 5.353,-10.54 -3.827,-0.718 -6.478,3.915 -8.978,-0.543 -5.75,-4.875 5.03,-7.104 1.979,-10.456 C 14.019,23.786 10.644,29.786 -0.606,23.036 -5.579,20.052 -9.737,17.606 -9.999,12.998 -10.38,6.286 -5.318,4.354 0,0"
             style="fill:#ffffff;fill-opacity:1;fill-rule:nonzero;stroke:none"
             id="path24" />
        </g>
        <g
           id="g26"
           transform="translate(591.9985,374.6768)">
          <path
             d="m 0,0 c -54.186,-11.806 -109.522,-23.811 -163.087,-36.236 0.504,-4.735 -0.334,-10.691 -0.334,-16.015 43.86,6.133 88.61,12.661 133.25,18.015 C -18.921,-23.757 -9.105,-12.225 0,0"
             style="fill:#ffffff;fill-opacity:1;fill-rule:nonzero;stroke:none"
             id="path28" />
        </g>
        <g
           id="g30"
           transform="translate(549.3696,328.0659)">
          <path
             d="m 0,0 c -3.182,-0.248 -4.729,-0.485 -4.604,-0.458 -40.188,-5.182 -78.963,-7.188 -117.438,-12.375 -0.814,-5.423 -2.312,-10.75 -3.75,-15.804 22.47,0.881 53.992,0.793 93.492,1.918 0,0 6.226,4.699 9.153,7.003 8.591,6.761 15.74,12.724 22.156,18.498 z"
             style="fill:#ffffff;fill-opacity:1;fill-rule:nonzero;stroke:none"
             id="path32" />
        </g>
        <g
           id="g34"
           transform="translate(421.1401,292.8574)">
          <path
             d="m 0,0 c -1.875,-4.5 -2.91,-8.386 -5.812,-14.688 14.783,-1.29 45.107,-5.277 57.732,-5.78 9.017,5.362 19.518,11.593 30.518,19.593 C 54.805,-1.178 26.487,-0.842 0,0"
             style="fill:#ffffff;fill-opacity:1;fill-rule:nonzero;stroke:none"
             id="path36" />
        </g>
        <g
           id="g38"
           transform="translate(412.3276,272.3716)">
          <path
             d="m 0,0 c -1.85,-4.129 -4.937,-9.015 -7.625,-12.952 7.716,-1.341 22.105,-5.247 30.076,-6.67 5.75,2.625 22.822,10.689 27.286,13.471 C 33.191,-4.699 16.348,-1.65 0,0"
             style="fill:#ffffff;fill-opacity:1;fill-rule:nonzero;stroke:none"
             id="path40" />
        </g>
        <g
           id="g42"
           transform="translate(104.2055,90.0146)">
          <path
             d="m 0,0 c 3.392,2.944 5.112,6.598 5.112,10.858 0,3.743 -0.779,6.908 -2.316,9.409 -1.547,2.518 -4.197,4.678 -7.873,6.418 l -3.994,1.896 c -3.177,1.534 -4.321,2.315 -4.72,2.646 -0.603,0.498 -1.063,1.106 -1.407,1.859 -0.35,0.767 -0.52,1.609 -0.52,2.574 0,1.484 0.445,2.646 1.361,3.554 0.92,0.913 2.212,1.356 3.949,1.356 1.34,0 2.836,-0.269 4.449,-0.8 2.016,-0.665 3.029,-1.231 3.525,-1.59 0.514,-0.372 1.175,-0.477 1.78,-0.285 0.605,0.192 1.083,0.661 1.287,1.262 l 1.97,5.809 c 0.266,0.784 0.021,1.651 -0.616,2.18 -2.508,2.085 -6.617,3.099 -12.562,3.099 -4.554,0 -8.36,-1.393 -11.31,-4.141 -2.992,-2.786 -4.51,-6.333 -4.51,-10.544 0,-3.369 0.77,-6.317 2.287,-8.765 1.526,-2.463 4.167,-4.582 7.848,-6.3 l 3.931,-1.832 c 4.153,-1.959 5.405,-3.267 5.781,-3.87 0.684,-1.102 1.017,-2.257 1.017,-3.534 0,-1.649 -0.543,-2.905 -1.708,-3.955 -1.213,-1.092 -2.827,-1.623 -4.938,-1.623 -1.247,0 -2.716,0.275 -4.365,0.817 -1.651,0.544 -3.031,1.218 -4.1,2.001 -0.499,0.365 -1.139,0.481 -1.736,0.309 -0.595,-0.171 -1.077,-0.609 -1.305,-1.185 L -26.12,1.48 c -0.348,-0.876 -0.035,-1.877 0.75,-2.401 3.391,-2.261 7.504,-3.406 12.225,-3.406 5.413,0 9.835,1.456 13.145,4.327"
             style="fill:#ffffff;fill-opacity:1;fill-rule:nonzero;stroke:none"
             id="path44" />
        </g>
        <g
           id="g46"
           transform="translate(132.3188,95.6953)">
          <path
             d="m 0,0 c -3.296,0 -5.795,1.523 -7.64,4.656 -2.021,3.432 -3.045,7.819 -3.045,13.039 0,5.416 0.984,9.704 2.924,12.744 1.782,2.793 4.321,4.151 7.761,4.151 5.16,0 12.02,-1.751 12.02,-16.895 C 12.02,11.908 10.933,7.406 8.788,4.313 6.775,1.411 3.9,0 0,0 M 17.148,37.294 C 13.151,42.141 7.381,44.598 0,44.598 c -6.669,0 -12.043,-2.674 -15.975,-7.949 -3.796,-5.092 -5.72,-11.469 -5.72,-18.954 0,-7.918 1.885,-14.534 5.604,-19.667 3.863,-5.332 9.277,-8.036 16.091,-8.036 7.374,0 13.145,2.55 17.153,7.579 3.9,4.894 5.877,11.664 5.877,20.124 0,8.273 -1.979,14.867 -5.882,19.599"
             style="fill:#ffffff;fill-opacity:1;fill-rule:nonzero;stroke:none"
             id="path48" />
        </g>
        <g
           id="g50"
           transform="translate(179.2182,85.6875)">
          <path
             d="m 0,0 c 6.618,0 12.124,2.139 16.365,6.356 0.696,0.693 0.787,1.789 0.214,2.585 l -3.672,5.108 c -0.371,0.515 -0.963,0.824 -1.597,0.833 -0.668,0.011 -1.235,-0.285 -1.62,-0.789 -2.089,-2.749 -5.03,-4.085 -8.989,-4.085 -3.583,0 -6.432,1.442 -8.713,4.41 -2.372,3.086 -3.574,7.229 -3.574,12.316 0,5.385 1.186,9.806 3.525,13.14 2.215,3.155 5.059,4.689 8.695,4.689 4.13,0 7.125,-0.657 8.903,-1.953 0.501,-0.364 1.142,-0.475 1.738,-0.303 0.596,0.173 1.077,0.613 1.303,1.19 l 2.236,5.709 c 0.359,0.917 -0.002,1.959 -0.853,2.456 -3.3,1.931 -7.84,2.91 -13.494,2.91 -6.812,0 -12.445,-2.686 -16.742,-7.984 -4.195,-5.172 -6.322,-11.716 -6.322,-19.452 0,-7.974 2,-14.526 5.944,-19.474 C -12.599,2.578 -6.997,0 0,0"
             style="fill:#ffffff;fill-opacity:1;fill-rule:nonzero;stroke:none"
             id="path52" />
        </g>
        <g
           id="g54"
           transform="translate(209.08,139.4258)">
          <path
             d="m 0,0 h -6.676 c -1.105,0 -2,-0.896 -2,-2 v -48.904 c 0,-1.105 0.895,-2 2,-2 H 0 c 1.104,0 2,0.895 2,2 V -2 C 2,-0.896 1.104,0 0,0"
             style="fill:#ffffff;fill-opacity:1;fill-rule:nonzero;stroke:none"
             id="path56" />
        </g>
        <g
           id="g58"
           transform="translate(248.4887,96.5303)">
          <path
             d="m 0,0 h -20.165 v 13.626 h 14.157 c 1.104,0 2,0.895 2,2 V 21.3 c 0,1.104 -0.896,2 -2,2 h -14.157 v 9.586 H 0.367 c 0.66,0 1.241,0.324 1.605,0.817 0.364,-0.493 0.945,-0.817 1.605,-0.817 H 17.133 V -8.009 c 0,-1.104 0.895,-2 2,-2 h 6.676 c 1.105,0 2,0.896 2,2 v 40.895 h 14.257 c 1.104,0 2,0.895 2,2 v 6.01 c 0,1.104 -0.896,2 -2,2 H 3.577 c -0.66,0 -1.241,-0.325 -1.605,-0.818 -0.364,0.493 -0.945,0.818 -1.605,0.818 h -29.208 c -1.105,0 -2,-0.896 -2,-2 V -8.009 c 0,-1.104 0.895,-2 2,-2 H 0 c 1.104,0 2,0.896 2,2 V -2 C 2,-0.896 1.104,0 0,0"
             style="fill:#ffffff;fill-opacity:1;fill-rule:nonzero;stroke:none"
             id="path60" />
        </g>
        <g
           id="g62"
           transform="translate(309.0669,105.7441)">
          <path
             d="m 0,0 h -8.95 l 4.67,13.271 z m 17.074,-18.364 c 0.374,0.538 0.461,1.224 0.232,1.839 L -1.121,33.046 c -0.291,0.783 -1.038,1.303 -1.874,1.303 h -1.769 c -0.818,0 -1.553,-0.497 -1.857,-1.256 l -19.862,-49.572 c -0.247,-0.616 -0.172,-1.315 0.2,-1.865 0.372,-0.55 0.992,-0.879 1.657,-0.879 h 7.477 c 0.85,0 1.607,0.537 1.888,1.34 l 3.137,8.975 H 3.199 l 2.921,-8.936 c 0.269,-0.822 1.036,-1.379 1.901,-1.379 h 7.411 c 0.654,0 1.268,0.321 1.642,0.859"
             style="fill:#ffffff;fill-opacity:1;fill-rule:nonzero;stroke:none"
             id="path64" />
        </g>
        <g
           id="g66"
           transform="translate(358.8735,131.416)">
          <path
             d="m 0,0 v 6.01 c 0,1.104 -0.896,2 -2,2 h -38.489 c -1.104,0 -2,-0.896 -2,-2 V 0 c 0,-1.104 0.896,-2 2,-2 h 13.556 v -40.895 c 0,-1.104 0.895,-2 2,-2 h 6.676 c 1.105,0 2,0.896 2,2 l 0,40.895 H -2 c 1.104,0 2,0.896 2,2"
             style="fill:#ffffff;fill-opacity:1;fill-rule:nonzero;stroke:none"
             id="path68" />
        </g>
        <g
           id="g70"
           transform="translate(418.4438,105.7441)">
          <path
             d="m 0,0 h -8.95 l 4.67,13.271 z m -1.12,33.046 c -0.292,0.783 -1.039,1.303 -1.875,1.303 h -1.77 c -0.817,0 -1.552,-0.497 -1.856,-1.256 l -18.704,-46.681 v 2.374 c 0,1.105 -0.896,2 -2,2 H -47.491 V 4.412 h 14.157 c 1.105,0 2,0.896 2,2 v 5.674 c 0,1.104 -0.895,2 -2,2 h -14.157 v 9.586 h 20.533 c 1.104,0 2,0.895 2,2 v 6.01 c 0,1.104 -0.896,2 -2,2 h -29.209 c -1.104,0 -2,-0.896 -2,-2 v -48.905 c 0,-1.104 0.896,-2 2,-2 h 28.842 c 0.52,0 0.99,0.204 1.346,0.531 0.366,-0.336 0.845,-0.531 1.352,-0.531 h 7.478 c 0.85,0 1.607,0.537 1.887,1.34 l 3.138,8.975 H 3.199 l 2.92,-8.936 c 0.27,-0.822 1.036,-1.379 1.902,-1.379 h 7.41 c 0.655,0 1.268,0.321 1.642,0.859 0.373,0.538 0.46,1.224 0.233,1.839 z"
             style="fill:#ffffff;fill-opacity:1;fill-rule:nonzero;stroke:none"
             id="path72" />
        </g>
        <g
           id="g74"
           transform="translate(483.5219,86.5215)">
          <path
             d="m 0,0 h 6.677 c 1.104,0 2,0.896 2,2 v 48.904 c 0,1.105 -0.896,2 -2,2 H 0 c -1.104,0 -2,-0.895 -2,-2 V 33.309 h -17.364 v 17.595 c 0,1.105 -0.896,2 -2,2 h -6.676 c -1.105,0 -2,-0.895 -2,-2 V 2 c 0,-1.104 0.895,-2 2,-2 h 6.676 c 1.104,0 2,0.896 2,2 V 23.635 H -2 L -2,2 C -2,0.896 -1.104,0 0,0"
             style="fill:#ffffff;fill-opacity:1;fill-rule:nonzero;stroke:none"
             id="path76" />
        </g>
        <g
           id="g78"
           transform="translate(529.2162,129.416)">
          <path
             d="m 0,0 c 1.104,0 2,0.896 2,2 v 6.01 c 0,1.104 -0.896,2 -2,2 h -29.209 c -1.104,0 -2,-0.896 -2,-2 v -48.905 c 0,-1.104 0.896,-2 2,-2 h 28.842 c 1.104,0 2,0.896 2,2 v 6.009 c 0,1.105 -0.896,2 -2,2 h -20.166 v 13.626 h 14.157 c 1.105,0 2,0.896 2,2 v 5.674 c 0,1.105 -0.895,2 -2,2 H -20.533 V 0 Z"
             style="fill:#ffffff;fill-opacity:1;fill-rule:nonzero;stroke:none"
             id="path80" />
        </g>
        <g
           id="g82"
           transform="translate(545.4311,129.6172)">
          <path
             d="m 0,0 c 1.101,0.105 1.657,0.133 1.939,0.133 4.777,0 7.115,-0.82 8.235,-1.508 0.851,-0.522 1.983,-1.526 1.983,-4.203 0,-2.613 -0.636,-4.389 -1.892,-5.277 -1.011,-0.716 -3.149,-1.569 -7.591,-1.569 -0.869,0 -1.764,0.04 -2.674,0.119 z m 67.396,-43.096 h 6.342 c 0.601,0 1.169,0.27 1.549,0.735 0.379,0.464 0.53,1.075 0.411,1.663 L 65.784,8.206 c -0.188,0.933 -1.009,1.603 -1.96,1.603 H 60.82 c -0.882,0 -1.66,-0.579 -1.915,-1.423 L 49.994,-21.197 40.322,8.43 c -0.268,0.822 -1.036,1.379 -1.901,1.379 h -3.038 c -0.963,0 -1.789,-0.686 -1.966,-1.632 l -8.315,-44.459 -10.488,16.634 c 1.989,0.944 3.764,2.424 5.302,4.422 2.157,2.807 3.252,6.008 3.252,9.515 0,7.308 -3.405,16.02 -19.626,16.02 -1.503,0 -3.902,-0.085 -7.13,-0.253 -4.225,-0.219 -4.97,-0.246 -5.088,-0.247 -1.104,0 -2,-0.896 -2,-2 v -48.905 c 0,-1.104 0.896,-2 2,-2 H -2 c 1.104,0 2,0.896 2,2 v 19.197 c 1.576,-0.095 2.898,-0.157 3.957,-0.184 l 12.475,-20.068 c 0.364,-0.587 1.006,-0.945 1.698,-0.945 h 7.643 c 0.072,0 0.139,0.021 0.208,0.029 0.085,-0.011 0.169,-0.029 0.255,-0.029 h 6.343 c 0.968,0 1.796,0.693 1.968,1.645 l 4.307,23.84 8.49,-24.8 c 0.277,-0.81 1.038,-1.353 1.892,-1.353 h 1.669 c 0.862,0 1.626,0.551 1.898,1.368 l 8.23,24.715 4.397,-23.778 c 0.175,-0.948 1.003,-1.637 1.966,-1.637"
             style="fill:#ffffff;fill-opacity:1;fill-rule:nonzero;stroke:none"
             id="path84" />
        </g>
        <g
           id="g86"
           transform="translate(624.3061,86.5215)">
          <path
             d="m 0,0 h 28.841 c 1.104,0 2,0.896 2,2 v 6.009 c 0,1.104 -0.896,2 -2,2 H 8.676 v 13.626 h 14.156 c 1.105,0 2,0.895 2,2 v 5.674 c 0,1.104 -0.895,2 -2,2 H 8.676 v 9.586 h 20.532 c 1.104,0 2,0.895 2,2 v 6.009 c 0,1.105 -0.896,2 -2,2 L 0,52.904 c -1.104,0 -2,-0.895 -2,-2 V 2 C -2,0.896 -1.104,0 0,0"
             style="fill:#ffffff;fill-opacity:1;fill-rule:nonzero;stroke:none"
             id="path88" />
        </g>
        <g
           id="g90"
           transform="translate(666.518,110.5098)">
          <path
             d="m 0,0 3.931,-1.832 c 4.152,-1.96 5.404,-3.267 5.78,-3.87 0.684,-1.102 1.017,-2.257 1.017,-3.534 0,-1.649 -0.543,-2.906 -1.708,-3.956 -1.212,-1.092 -2.827,-1.622 -4.937,-1.622 -1.248,0 -2.717,0.275 -4.365,0.817 -1.653,0.545 -3.032,1.218 -4.101,2.001 -0.502,0.366 -1.143,0.479 -1.736,0.308 -0.595,-0.171 -1.077,-0.609 -1.306,-1.184 l -2.435,-6.143 c -0.348,-0.877 -0.036,-1.878 0.75,-2.401 3.39,-2.26 7.503,-3.406 12.224,-3.406 5.412,0 9.835,1.456 13.145,4.327 3.392,2.944 5.112,6.598 5.112,10.858 0,3.743 -0.779,6.908 -2.315,9.408 -1.548,2.519 -4.198,4.678 -7.872,6.418 L 7.188,8.086 c -3.176,1.533 -4.321,2.315 -4.719,2.644 -0.603,0.499 -1.064,1.108 -1.407,1.861 -0.351,0.766 -0.521,1.608 -0.521,2.574 0,1.482 0.445,2.645 1.361,3.554 0.921,0.913 2.212,1.356 3.95,1.356 1.338,0 2.836,-0.269 4.449,-0.801 2.015,-0.664 3.029,-1.23 3.523,-1.588 0.516,-0.374 1.176,-0.479 1.781,-0.287 0.606,0.193 1.083,0.662 1.288,1.263 l 1.969,5.809 c 0.266,0.784 0.021,1.651 -0.616,2.18 -2.509,2.085 -6.618,3.099 -12.561,3.099 -4.555,0 -8.361,-1.394 -11.31,-4.142 -2.993,-2.785 -4.511,-6.333 -4.511,-10.544 0,-3.368 0.77,-6.316 2.286,-8.764 C -6.322,3.837 -3.682,1.718 0,0"
             style="fill:#ffffff;fill-opacity:1;fill-rule:nonzero;stroke:none"
             id="path92" />
        </g>
        <g
           id="g94"
           transform="translate(87.77,56.4434)">
          <path
             d="m 0,0 c -0.639,-0.914 -1.521,-1.371 -2.647,-1.371 -2.412,0 -3.618,1.705 -3.618,5.115 0,1.574 0.328,2.811 0.984,3.707 0.656,0.898 1.534,1.346 2.634,1.346 2.404,0 3.605,-1.684 3.605,-5.053 C 0.958,2.162 0.639,0.914 0,0 m -2.647,10.766 c -1.845,0 -3.332,-0.647 -4.462,-1.937 -1.13,-1.29 -1.695,-2.985 -1.695,-5.085 0,-2.166 0.541,-3.889 1.625,-5.166 1.083,-1.278 2.594,-1.918 4.532,-1.918 1.896,0 3.394,0.633 4.494,1.899 1.1,1.265 1.651,2.994 1.651,5.185 0,2.201 -0.538,3.922 -1.613,5.161 -1.074,1.24 -2.585,1.861 -4.532,1.861"
             style="fill:#ffffff;fill-opacity:1;fill-rule:nonzero;stroke:none"
             id="path96" />
        </g>
        <g
           id="g98"
           transform="translate(96.331,64.7832)">
          <path
             d="M 0,0 V 2.172 H -2.412 V -11.426 H 0 v 7.795 c 0,1.11 0.319,2.057 0.958,2.844 0.64,0.787 1.386,1.182 2.241,1.182 0.533,0 1.062,-0.183 1.587,-0.547 L 5.789,2.197 C 4.977,2.35 4.354,2.426 3.923,2.426 2.188,2.426 0.88,1.617 0,0"
             style="fill:#ffffff;fill-opacity:1;fill-rule:nonzero;stroke:none"
             id="path100" />
        </g>
        <g
           id="g102"
           transform="translate(105.5337,62.2188)">
          <path
             d="M 0,0 C 0,0.847 0.265,1.566 0.793,2.158 1.322,2.751 2.006,3.047 2.844,3.047 3.623,3.047 4.272,2.751 4.792,2.158 5.313,1.566 5.573,0.847 5.573,0 5.573,-0.981 5.332,-1.775 4.85,-2.38 4.367,-2.984 3.699,-3.287 2.844,-3.287 1.972,-3.287 1.28,-2.977 0.768,-2.354 0.256,-1.732 0,-0.947 0,0 m 4.545,-6.385 c -0.373,0 -0.944,-0.066 -1.714,-0.197 -0.77,-0.131 -1.337,-0.197 -1.701,-0.197 -0.83,0 -1.244,0.174 -1.244,0.521 0,0.254 0.198,0.459 0.596,0.615 0.398,0.157 0.716,0.248 0.953,0.274 l 1.993,0.203 c 1.388,0.135 2.509,0.668 3.364,1.6 0.855,0.93 1.282,2.082 1.282,3.453 0,1.295 -0.309,2.343 -0.927,3.148 L 8.595,4.127 7.021,5.611 5.814,4.164 C 5.061,4.715 4.016,4.99 2.679,4.99 1.223,4.99 0,4.516 -0.99,3.568 -1.98,2.62 -2.476,1.436 -2.476,0.014 c 0,-2.218 0.957,-3.776 2.87,-4.672 -0.669,-0.161 -1.23,-0.424 -1.683,-0.787 -0.452,-0.365 -0.679,-0.771 -0.679,-1.219 0,-1.456 0.965,-2.184 2.895,-2.184 0.398,0 0.952,0.068 1.663,0.203 0.711,0.135 1.202,0.204 1.472,0.204 1.592,0 2.387,-0.551 2.387,-1.651 0,-0.558 -0.315,-1.027 -0.946,-1.403 -0.63,-0.376 -1.491,-0.566 -2.583,-0.566 -1.185,0 -2.48,0.471 -3.885,1.411 l -1.307,-1.93 c 0.592,-0.449 1.375,-0.83 2.348,-1.143 0.973,-0.313 1.9,-0.47 2.78,-0.47 1.719,0 3.138,0.385 4.26,1.156 1.121,0.769 1.682,1.781 1.682,3.033 0,1.135 -0.375,2.022 -1.124,2.66 -0.749,0.639 -1.792,0.959 -3.129,0.959"
             style="fill:#ffffff;fill-opacity:1;fill-rule:nonzero;stroke:none"
             id="path104" />
        </g>
        <g
           id="g106"
           transform="translate(124.1811,56.748)">
          <path
             d="m 0,0 c -0.939,-1.16 -2.019,-1.74 -3.237,-1.74 -1.668,0 -2.501,0.707 -2.501,2.121 0,0.854 0.385,1.595 1.155,2.221 0.77,0.627 1.765,0.939 2.983,0.939 0.305,0 0.838,-0.084 1.6,-0.254 z m 2.412,-0.039 v 4.875 c 0,1.955 -0.446,3.382 -1.339,4.279 -0.893,0.897 -2.325,1.346 -4.298,1.346 -0.736,0 -1.508,-0.134 -2.317,-0.4 C -6.35,9.794 -6.982,9.475 -7.439,9.102 l 1.015,-2.018 c 0.813,0.812 1.972,1.219 3.479,1.219 C -0.982,8.303 0,7.202 0,5.002 c -0.643,0.22 -1.219,0.33 -1.727,0.33 -1.87,0 -3.408,-0.477 -4.614,-1.429 C -7.547,2.951 -8.15,1.785 -8.15,0.406 c 0,-1.151 0.391,-2.114 1.174,-2.888 0.783,-0.775 1.707,-1.163 2.774,-1.163 1.989,0 3.466,0.606 4.431,1.817 0.211,-0.644 0.56,-1.106 1.047,-1.385 0.487,-0.279 1.221,-0.418 2.203,-0.418 v 1.205 c -0.711,0.399 -1.067,1.194 -1.067,2.387"
             style="fill:#ffffff;fill-opacity:1;fill-rule:nonzero;stroke:none"
             id="path108" />
        </g>
        <g
           id="g110"
           transform="translate(136.6206,67.209)">
          <path
             d="m 0,0 c -1.803,0 -3.102,-0.669 -3.897,-2.006 l -0.762,1.752 H -6.31 v -13.598 h 2.413 v 10.106 c 0.321,0.482 0.782,0.889 1.383,1.219 0.601,0.33 1.177,0.496 1.727,0.496 1.024,0 1.754,-0.291 2.19,-0.87 0.436,-0.579 0.654,-1.593 0.654,-3.04 v -7.911 h 2.412 v 8.418 C 4.469,-1.812 2.979,0 0,0"
             style="fill:#ffffff;fill-opacity:1;fill-rule:nonzero;stroke:none"
             id="path112" />
        </g>
        <g
           id="g114"
           transform="translate(146.9272,72.0957)">
          <path
             d="m 0,0 c -0.415,0 -0.766,-0.144 -1.054,-0.432 -0.287,-0.287 -0.431,-0.638 -0.431,-1.052 0,-0.415 0.146,-0.769 0.438,-1.061 0.292,-0.292 0.641,-0.437 1.047,-0.437 0.415,0 0.768,0.145 1.06,0.437 0.292,0.292 0.438,0.646 0.438,1.061 0,0.406 -0.146,0.755 -0.438,1.047 C 0.768,-0.146 0.415,0 0,0"
             style="fill:#ffffff;fill-opacity:1;fill-rule:nonzero;stroke:none"
             id="path116" />
        </g>
        <g
           id="g118"
           transform="translate(143.7407,64.9238)">
          <path
             d="M 0,0 H 1.866 V -11.566 H 4.278 V 2.031 L 0,2.031 Z"
             style="fill:#ffffff;fill-opacity:1;fill-rule:nonzero;stroke:none"
             id="path120" />
        </g>
        <g
           id="g122"
           transform="translate(161.8174,66.2695)">
          <path
             d="m 0,0 v 0.686 h -11.121 v -2.159 h 7.604 l -7.731,-10.804 v -0.635 H 0.076 v 2.158 h -7.541 z"
             style="fill:#ffffff;fill-opacity:1;fill-rule:nonzero;stroke:none"
             id="path124" />
        </g>
        <g
           id="g126"
           transform="translate(171.4892,56.748)">
          <path
             d="m 0,0 c -0.939,-1.16 -2.019,-1.74 -3.237,-1.74 -1.668,0 -2.501,0.707 -2.501,2.121 0,0.854 0.385,1.595 1.155,2.221 0.77,0.627 1.765,0.939 2.983,0.939 0.305,0 0.838,-0.084 1.6,-0.254 z m 2.412,-0.039 v 4.875 c 0,1.955 -0.446,3.382 -1.339,4.279 -0.893,0.897 -2.325,1.346 -4.298,1.346 -0.736,0 -1.508,-0.134 -2.317,-0.4 C -6.35,9.794 -6.982,9.475 -7.439,9.102 l 1.015,-2.018 c 0.813,0.812 1.972,1.219 3.479,1.219 C -0.982,8.303 0,7.202 0,5.002 c -0.643,0.22 -1.219,0.33 -1.727,0.33 -1.87,0 -3.408,-0.477 -4.614,-1.429 C -7.547,2.951 -8.15,1.785 -8.15,0.406 c 0,-1.151 0.391,-2.114 1.174,-2.888 0.783,-0.775 1.707,-1.163 2.774,-1.163 1.989,0 3.466,0.606 4.431,1.817 0.211,-0.644 0.56,-1.106 1.047,-1.385 0.487,-0.279 1.221,-0.418 2.203,-0.418 v 1.205 c -0.711,0.399 -1.067,1.194 -1.067,2.387"
             style="fill:#ffffff;fill-opacity:1;fill-rule:nonzero;stroke:none"
             id="path128" />
        </g>
        <g
           id="g130"
           transform="translate(183.332,55.1348)">
          <path
             d="M 0,0 C -0.855,0 -1.475,0.242 -1.86,0.725 -2.245,1.207 -2.438,2.02 -2.438,3.162 v 6.754 h 3.733 v 1.904 h -3.733 v 3.77 L -4.85,14.664 V 11.82 H -6.424 V 9.916 H -4.85 V 2.197 c 0,-1.218 0.371,-2.228 1.111,-3.028 0.741,-0.8 1.649,-1.2 2.723,-1.2 1.194,0 2.29,0.127 3.288,0.381 L 1.917,0.471 C 1.257,0.157 0.618,0 0,0"
             style="fill:#ffffff;fill-opacity:1;fill-rule:nonzero;stroke:none"
             id="path132" />
        </g>
        <g
           id="g134"
           transform="translate(187.1513,64.9238)">
          <path
             d="M 0,0 H 1.866 V -11.566 H 4.278 V 2.031 L 0,2.031 Z"
             style="fill:#ffffff;fill-opacity:1;fill-rule:nonzero;stroke:none"
             id="path136" />
        </g>
        <g
           id="g138"
           transform="translate(190.3379,72.0957)">
          <path
             d="m 0,0 c -0.415,0 -0.766,-0.144 -1.054,-0.432 -0.287,-0.287 -0.431,-0.638 -0.431,-1.052 0,-0.415 0.146,-0.769 0.438,-1.061 0.292,-0.292 0.641,-0.437 1.047,-0.437 0.415,0 0.768,0.145 1.06,0.437 0.292,0.292 0.438,0.646 0.438,1.061 0,0.406 -0.146,0.755 -0.438,1.047 C 0.768,-0.146 0.415,0 0,0"
             style="fill:#ffffff;fill-opacity:1;fill-rule:nonzero;stroke:none"
             id="path140" />
        </g>
        <g
           id="g142"
           transform="translate(202.6382,56.748)">
          <path
             d="m 0,0 c -0.939,-1.16 -2.019,-1.74 -3.237,-1.74 -1.668,0 -2.501,0.707 -2.501,2.121 0,0.854 0.385,1.595 1.155,2.221 0.77,0.627 1.765,0.939 2.983,0.939 0.305,0 0.838,-0.084 1.6,-0.254 z m 2.412,-0.039 v 4.875 c 0,1.955 -0.446,3.382 -1.339,4.279 -0.893,0.897 -2.325,1.346 -4.298,1.346 -0.736,0 -1.508,-0.134 -2.317,-0.4 C -6.35,9.794 -6.982,9.475 -7.439,9.102 l 1.015,-2.018 c 0.813,0.812 1.972,1.219 3.479,1.219 C -0.982,8.303 0,7.202 0,5.002 c -0.643,0.22 -1.219,0.33 -1.727,0.33 -1.87,0 -3.408,-0.477 -4.614,-1.429 C -7.547,2.951 -8.15,1.785 -8.15,0.406 c 0,-1.151 0.391,-2.114 1.174,-2.888 0.783,-0.775 1.707,-1.163 2.774,-1.163 1.989,0 3.466,0.606 4.431,1.817 0.211,-0.644 0.56,-1.106 1.047,-1.385 0.487,-0.279 1.221,-0.418 2.203,-0.418 v 1.205 c -0.711,0.399 -1.067,1.194 -1.067,2.387"
             style="fill:#ffffff;fill-opacity:1;fill-rule:nonzero;stroke:none"
             id="path144" />
        </g>
        <g
           id="g146"
           transform="translate(221.4741,60.9746)">
          <path
             d="m 0,0 -1.727,0.787 c -0.99,0.449 -1.485,1.109 -1.485,1.981 0,0.415 0.197,0.757 0.59,1.029 0.394,0.27 0.878,0.406 1.454,0.406 0.965,0 1.925,-0.381 2.882,-1.142 L 2.399,5.295 C 0.893,5.921 -0.355,6.234 -1.346,6.234 -2.658,6.234 -3.72,5.921 -4.532,5.295 -5.345,4.668 -5.751,3.797 -5.751,2.68 c 0,-0.432 0.07,-0.836 0.209,-1.213 0.14,-0.377 0.352,-0.733 0.635,-1.067 0.284,-0.334 0.618,-0.632 1.003,-0.894 0.385,-0.263 1.132,-0.649 2.241,-1.156 1.439,-0.643 2.158,-1.413 2.158,-2.311 0,-1.252 -0.745,-1.879 -2.234,-1.879 -0.821,0 -1.905,0.441 -3.25,1.32 L -5.84,-6.805 c 1.261,-0.711 2.607,-1.066 4.037,-1.066 1.515,0 2.7,0.346 3.555,1.035 0.855,0.69 1.282,1.645 1.282,2.863 0,0.931 -0.241,1.705 -0.723,2.323 C 1.828,-1.032 1.058,-0.482 0,0"
             style="fill:#ffffff;fill-opacity:1;fill-rule:nonzero;stroke:none"
             id="path148" />
        </g>
        <g
           id="g150"
           transform="translate(232.6821,55.1348)">
          <path
             d="M 0,0 C -0.855,0 -1.475,0.242 -1.86,0.725 -2.245,1.207 -2.438,2.02 -2.438,3.162 v 6.754 h 3.733 v 1.904 h -3.733 v 3.77 L -4.85,14.664 V 11.82 H -6.424 V 9.916 H -4.85 V 2.197 c 0,-1.218 0.371,-2.228 1.111,-3.028 0.741,-0.8 1.649,-1.2 2.723,-1.2 1.194,0 2.29,0.127 3.288,0.381 L 1.917,0.471 C 1.257,0.157 0.618,0 0,0"
             style="fill:#ffffff;fill-opacity:1;fill-rule:nonzero;stroke:none"
             id="path152" />
        </g>
        <g
           id="g154"
           transform="translate(245.706,57.4082)">
          <path
             d="m 0,0 c -0.211,-0.602 -0.647,-1.131 -1.308,-1.588 -0.66,-0.457 -1.388,-0.685 -2.183,-0.685 -1.82,0 -2.73,1.049 -2.73,3.148 V 9.547 H -8.633 V 0.621 c 0,-1.574 0.396,-2.788 1.187,-3.642 0.792,-0.856 1.932,-1.284 3.422,-1.284 0.778,0 1.576,0.223 2.393,0.667 0.817,0.445 1.36,0.933 1.631,1.466 V -4.051 H 2.412 V 9.547 H 0 Z"
             style="fill:#ffffff;fill-opacity:1;fill-rule:nonzero;stroke:none"
             id="path156" />
        </g>
        <g
           id="g158"
           transform="translate(259.9482,56.2656)">
          <path
             d="m 0,0 c -0.135,-0.271 -0.47,-0.527 -1.003,-0.769 -0.533,-0.241 -0.99,-0.362 -1.371,-0.362 -2.979,0 -4.469,1.639 -4.469,4.914 0,1.489 0.4,2.717 1.2,3.682 0.8,0.965 1.847,1.447 3.142,1.447 1.058,0 1.892,-0.457 2.501,-1.371 z m 0,9.953 c -0.728,0.66 -1.794,0.99 -3.199,0.99 -1.684,0 -3.136,-0.722 -4.355,-2.165 -1.218,-1.442 -1.828,-3.184 -1.828,-5.223 0,-2.032 0.529,-3.657 1.587,-4.875 1.058,-1.219 2.438,-1.828 4.139,-1.828 1.599,0 2.818,0.418 3.656,1.255 V -2.895 H 2.412 V 16.262 H 0 Z"
             style="fill:#ffffff;fill-opacity:1;fill-rule:nonzero;stroke:none"
             id="path160" />
        </g>
        <g
           id="g162"
           transform="translate(267.4492,61.6738)">
          <path
             d="M 0,0 C 0.093,0.981 0.487,1.803 1.181,2.463 1.909,3.156 2.81,3.504 3.885,3.504 5.036,3.504 5.946,3.148 6.614,2.438 7.224,1.785 7.528,0.973 7.528,0 Z M 3.771,5.535 C 2.103,5.535 0.66,4.93 -0.559,3.719 -1.921,2.365 -2.603,0.566 -2.603,-1.676 c 0,-2.158 0.665,-3.877 1.994,-5.154 1.193,-1.16 2.645,-1.74 4.354,-1.74 1.185,0 2.26,0.177 3.225,0.533 0.77,0.271 1.341,0.593 1.714,0.965 l -1.016,1.74 C 6.746,-6.137 5.594,-6.539 4.215,-6.539 c -1.211,0 -2.201,0.373 -2.971,1.117 -0.871,0.856 -1.307,2.078 -1.307,3.67 h 9.8 c 0.127,0.448 0.191,0.94 0.191,1.473 0,1.734 -0.533,3.127 -1.6,4.175 -1.1,1.092 -2.62,1.639 -4.557,1.639"
             style="fill:#ffffff;fill-opacity:1;fill-rule:nonzero;stroke:none"
             id="path164" />
        </g>
        <g
           id="g166"
           transform="translate(286.1474,67.209)">
          <path
             d="m 0,0 c -1.803,0 -3.102,-0.669 -3.897,-2.006 l -0.762,1.752 H -6.31 v -13.598 h 2.413 v 10.106 c 0.321,0.482 0.782,0.889 1.383,1.219 0.601,0.33 1.177,0.496 1.727,0.496 1.024,0 1.754,-0.291 2.19,-0.87 0.436,-0.579 0.654,-1.593 0.654,-3.04 v -7.911 h 2.412 v 8.418 C 4.469,-1.812 2.979,0 0,0"
             style="fill:#ffffff;fill-opacity:1;fill-rule:nonzero;stroke:none"
             id="path168" />
        </g>
        <g
           id="g170"
           transform="translate(299.6792,55.1348)">
          <path
             d="M 0,0 C -0.855,0 -1.475,0.242 -1.86,0.725 -2.245,1.207 -2.438,2.02 -2.438,3.162 v 6.754 h 3.733 v 1.904 h -3.733 v 3.77 L -4.85,14.664 V 11.82 H -6.424 V 9.916 H -4.85 V 2.197 c 0,-1.218 0.371,-2.228 1.111,-3.028 0.741,-0.8 1.649,-1.2 2.723,-1.2 1.194,0 2.29,0.127 3.288,0.381 L 1.917,0.471 C 1.257,0.157 0.618,0 0,0"
             style="fill:#ffffff;fill-opacity:1;fill-rule:nonzero;stroke:none"
             id="path172" />
        </g>
        <g
           id="g174"
           transform="translate(306.685,72.0957)">
          <path
             d="m 0,0 c -0.415,0 -0.766,-0.144 -1.054,-0.432 -0.287,-0.287 -0.431,-0.638 -0.431,-1.052 0,-0.415 0.146,-0.769 0.438,-1.061 0.292,-0.292 0.641,-0.437 1.047,-0.437 0.415,0 0.768,0.145 1.06,0.437 0.292,0.292 0.438,0.646 0.438,1.061 0,0.406 -0.146,0.755 -0.438,1.047 C 0.768,-0.146 0.415,0 0,0"
             style="fill:#ffffff;fill-opacity:1;fill-rule:nonzero;stroke:none"
             id="path176" />
        </g>
        <g
           id="g178"
           transform="translate(303.4985,64.9238)">
          <path
             d="M 0,0 H 1.866 V -11.566 H 4.278 V 2.031 L 0,2.031 Z"
             style="fill:#ffffff;fill-opacity:1;fill-rule:nonzero;stroke:none"
             id="path180" />
        </g>
        <g
           id="g182"
           transform="translate(314.1352,57.6113)">
          <path
             d="M 0,0 V 14.916 H -2.412 V -0.406 c 0,-2.735 1.561,-4.102 4.684,-4.102 v 2.158 c -0.677,0 -1.225,0.21 -1.644,0.629 C 0.209,-1.302 0,-0.729 0,0"
             style="fill:#ffffff;fill-opacity:1;fill-rule:nonzero;stroke:none"
             id="path184" />
        </g>
        <g
           id="g186"
           transform="translate(327.0381,56.4434)">
          <path
             d="m 0,0 c -0.639,-0.914 -1.521,-1.371 -2.647,-1.371 -2.412,0 -3.618,1.705 -3.618,5.115 0,1.574 0.328,2.811 0.984,3.707 0.656,0.898 1.534,1.346 2.634,1.346 2.404,0 3.605,-1.684 3.605,-5.053 C 0.958,2.162 0.639,0.914 0,0 m -2.647,10.766 c -1.845,0 -3.332,-0.647 -4.462,-1.937 -1.13,-1.29 -1.695,-2.985 -1.695,-5.085 0,-2.166 0.541,-3.889 1.625,-5.166 1.083,-1.278 2.594,-1.918 4.532,-1.918 1.896,0 3.394,0.633 4.494,1.899 1.1,1.265 1.651,2.994 1.651,5.185 0,2.201 -0.538,3.922 -1.613,5.161 -1.074,1.24 -2.585,1.861 -4.532,1.861"
             style="fill:#ffffff;fill-opacity:1;fill-rule:nonzero;stroke:none"
             id="path188" />
        </g>
        <g
           id="g190"
           transform="translate(335.5996,64.7832)">
          <path
             d="M 0,0 V 2.172 H -2.412 V -11.426 H 0 v 7.795 c 0,1.11 0.319,2.057 0.958,2.844 0.64,0.787 1.386,1.182 2.241,1.182 0.533,0 1.062,-0.183 1.587,-0.547 L 5.789,2.197 C 4.977,2.35 4.354,2.426 3.923,2.426 2.188,2.426 0.88,1.617 0,0"
             style="fill:#ffffff;fill-opacity:1;fill-rule:nonzero;stroke:none"
             id="path192" />
        </g>
        <g
           id="g194"
           transform="translate(359.3994,56.2656)">
          <path
             d="m 0,0 c -0.135,-0.271 -0.47,-0.527 -1.003,-0.769 -0.533,-0.241 -0.99,-0.362 -1.371,-0.362 -2.979,0 -4.469,1.639 -4.469,4.914 0,1.489 0.4,2.717 1.2,3.682 0.8,0.965 1.847,1.447 3.142,1.447 1.058,0 1.892,-0.457 2.501,-1.371 z m 0,9.953 c -0.728,0.66 -1.794,0.99 -3.199,0.99 -1.684,0 -3.136,-0.722 -4.355,-2.165 -1.218,-1.442 -1.828,-3.184 -1.828,-5.223 0,-2.032 0.529,-3.657 1.587,-4.875 1.058,-1.219 2.438,-1.828 4.139,-1.828 1.599,0 2.818,0.418 3.656,1.255 V -2.895 H 2.412 V 16.262 H 0 Z"
             style="fill:#ffffff;fill-opacity:1;fill-rule:nonzero;stroke:none"
             id="path196" />
        </g>
        <g
           id="g198"
           transform="translate(366.9004,61.6738)">
          <path
             d="M 0,0 C 0.093,0.981 0.487,1.803 1.181,2.463 1.909,3.156 2.81,3.504 3.885,3.504 5.036,3.504 5.946,3.148 6.614,2.438 7.224,1.785 7.528,0.973 7.528,0 Z M 3.771,5.535 C 2.103,5.535 0.66,4.93 -0.559,3.719 -1.921,2.365 -2.603,0.566 -2.603,-1.676 c 0,-2.158 0.665,-3.877 1.994,-5.154 1.193,-1.16 2.645,-1.74 4.354,-1.74 1.185,0 2.26,0.177 3.225,0.533 0.77,0.271 1.341,0.593 1.714,0.965 l -1.016,1.74 C 6.746,-6.137 5.594,-6.539 4.215,-6.539 c -1.211,0 -2.201,0.373 -2.971,1.117 -0.871,0.856 -1.307,2.078 -1.307,3.67 h 9.8 c 0.127,0.448 0.191,0.94 0.191,1.473 0,1.734 -0.533,3.127 -1.6,4.175 -1.1,1.092 -2.62,1.639 -4.557,1.639"
             style="fill:#ffffff;fill-opacity:1;fill-rule:nonzero;stroke:none"
             id="path200" />
        </g>
        <g
           id="g202"
           transform="translate(389.6469,57.6113)">
          <path
             d="M 0,0 V 14.916 H -2.412 V -0.406 c 0,-2.735 1.561,-4.102 4.684,-4.102 v 2.158 c -0.677,0 -1.224,0.21 -1.644,0.629 C 0.21,-1.302 0,-0.729 0,0"
             style="fill:#ffffff;fill-opacity:1;fill-rule:nonzero;stroke:none"
             id="path204" />
        </g>
        <g
           id="g206"
           transform="translate(402.0864,56.748)">
          <path
             d="m 0,0 c -0.939,-1.16 -2.019,-1.74 -3.237,-1.74 -1.668,0 -2.501,0.707 -2.501,2.121 0,0.854 0.385,1.595 1.155,2.221 0.77,0.627 1.765,0.939 2.983,0.939 0.305,0 0.838,-0.084 1.6,-0.254 z m 2.412,-0.039 v 4.875 c 0,1.955 -0.446,3.382 -1.339,4.279 -0.893,0.897 -2.326,1.346 -4.298,1.346 -0.736,0 -1.508,-0.134 -2.317,-0.4 C -6.35,9.794 -6.982,9.475 -7.439,9.102 l 1.015,-2.018 c 0.813,0.812 1.972,1.219 3.479,1.219 C -0.981,8.303 0,7.202 0,5.002 c -0.644,0.22 -1.219,0.33 -1.727,0.33 -1.87,0 -3.409,-0.477 -4.614,-1.429 C -7.548,2.951 -8.15,1.785 -8.15,0.406 c 0,-1.151 0.391,-2.114 1.174,-2.888 0.783,-0.775 1.707,-1.163 2.774,-1.163 1.988,0 3.466,0.606 4.431,1.817 0.211,-0.644 0.56,-1.106 1.047,-1.385 0.487,-0.279 1.221,-0.418 2.203,-0.418 v 1.205 c -0.711,0.399 -1.067,1.194 -1.067,2.387"
             style="fill:#ffffff;fill-opacity:1;fill-rule:nonzero;stroke:none"
             id="path208" />
        </g>
        <g
           id="g210"
           transform="translate(429.7085,67.209)">
          <path
             d="M 0,0 C -0.779,0 -1.537,-0.174 -2.273,-0.521 -3.01,-0.868 -3.514,-1.3 -3.783,-1.816 -4.562,-0.605 -5.926,0 -7.871,0 c -1.397,0 -2.561,-0.609 -3.492,-1.828 l -0.799,1.574 h -1.574 v -13.598 h 2.412 v 10.03 c 0.228,0.449 0.615,0.859 1.16,1.232 0.547,0.372 1.06,0.559 1.543,0.559 0.83,0 1.496,-0.194 2,-0.578 0.504,-0.385 0.756,-0.912 0.756,-1.58 v -9.663 h 2.412 v 10.055 c 0.185,0.457 0.533,0.865 1.041,1.226 0.508,0.36 1.053,0.54 1.637,0.54 1.853,0 2.781,-1.072 2.781,-3.213 v -8.608 h 2.412 v 9.09 c 0,1.507 -0.385,2.678 -1.156,3.511 C 2.492,-0.418 1.404,0 0,0"
             style="fill:#ffffff;fill-opacity:1;fill-rule:nonzero;stroke:none"
             id="path212" />
        </g>
        <g
           id="g214"
           transform="translate(444.9272,56.748)">
          <path
             d="m 0,0 c -0.939,-1.16 -2.018,-1.74 -3.236,-1.74 -1.668,0 -2.502,0.707 -2.502,2.121 0,0.854 0.384,1.595 1.156,2.221 0.769,0.627 1.764,0.939 2.982,0.939 0.305,0 0.838,-0.084 1.6,-0.254 z m 2.412,-0.039 v 4.875 c 0,1.955 -0.445,3.382 -1.34,4.279 -0.892,0.897 -2.324,1.346 -4.297,1.346 -0.736,0 -1.507,-0.134 -2.316,-0.4 C -6.35,9.794 -6.982,9.475 -7.439,9.102 l 1.015,-2.018 c 0.813,0.812 1.973,1.219 3.479,1.219 C -0.98,8.303 0,7.202 0,5.002 c -0.643,0.22 -1.219,0.33 -1.727,0.33 -1.869,0 -3.408,-0.477 -4.615,-1.429 C -7.547,2.951 -8.15,1.785 -8.15,0.406 c 0,-1.151 0.392,-2.114 1.173,-2.888 0.784,-0.775 1.709,-1.163 2.776,-1.163 1.988,0 3.465,0.606 4.43,1.817 0.212,-0.644 0.56,-1.106 1.046,-1.385 0.489,-0.279 1.223,-0.418 2.204,-0.418 v 1.205 c -0.711,0.399 -1.067,1.194 -1.067,2.387"
             style="fill:#ffffff;fill-opacity:1;fill-rule:nonzero;stroke:none"
             id="path216" />
        </g>
        <g
           id="g218"
           transform="translate(456.771,55.1348)">
          <path
             d="M 0,0 C -0.855,0 -1.475,0.242 -1.861,0.725 -2.246,1.207 -2.438,2.02 -2.438,3.162 v 6.754 h 3.733 v 1.904 h -3.733 v 3.77 L -4.85,14.664 V 11.82 H -6.424 V 9.916 H -4.85 V 2.197 c 0,-1.218 0.37,-2.228 1.11,-3.028 0.742,-0.8 1.648,-1.2 2.724,-1.2 1.194,0 2.289,0.127 3.287,0.381 L 1.916,0.471 C 1.256,0.157 0.617,0 0,0"
             style="fill:#ffffff;fill-opacity:1;fill-rule:nonzero;stroke:none"
             id="path220" />
        </g>
        <g
           id="g222"
           transform="translate(463.0014,61.6738)">
          <path
             d="m 0,0 c 0.094,0.981 0.486,1.803 1.182,2.463 0.726,0.693 1.629,1.041 2.703,1.041 1.152,0 2.06,-0.356 2.73,-1.066 C 7.225,1.785 7.529,0.973 7.529,0 Z M 3.771,5.535 C 2.104,5.535 0.66,4.93 -0.559,3.719 -1.92,2.365 -2.602,0.566 -2.602,-1.676 c 0,-2.158 0.665,-3.877 1.993,-5.154 1.193,-1.16 2.644,-1.74 4.355,-1.74 1.184,0 2.26,0.177 3.225,0.533 0.769,0.271 1.342,0.593 1.713,0.965 l -1.016,1.74 C 6.746,-6.137 5.596,-6.539 4.215,-6.539 c -1.209,0 -2.199,0.373 -2.971,1.117 -0.871,0.856 -1.306,2.078 -1.306,3.67 h 9.8 c 0.127,0.448 0.19,0.94 0.19,1.473 0,1.734 -0.533,3.127 -1.6,4.175 C 7.229,4.988 5.709,5.535 3.771,5.535"
             style="fill:#ffffff;fill-opacity:1;fill-rule:nonzero;stroke:none"
             id="path224" />
        </g>
        <g
           id="g226"
           transform="translate(489.1264,67.209)">
          <path
             d="M 0,0 C -0.777,0 -1.535,-0.174 -2.271,-0.521 -3.008,-0.868 -3.512,-1.3 -3.783,-1.816 -4.561,-0.605 -5.924,0 -7.871,0 c -1.397,0 -2.561,-0.609 -3.49,-1.828 l -0.801,1.574 h -1.574 v -13.598 h 2.412 v 10.03 c 0.228,0.449 0.615,0.859 1.162,1.232 0.545,0.372 1.06,0.559 1.543,0.559 0.828,0 1.496,-0.194 1.998,-0.578 0.504,-0.385 0.756,-0.912 0.756,-1.58 v -9.663 h 2.412 v 10.055 c 0.187,0.457 0.533,0.865 1.041,1.226 0.508,0.36 1.055,0.54 1.639,0.54 1.853,0 2.779,-1.072 2.779,-3.213 v -8.608 h 2.412 v 9.09 c 0,1.507 -0.385,2.678 -1.154,3.511 C 2.492,-0.418 1.406,0 0,0"
             style="fill:#ffffff;fill-opacity:1;fill-rule:nonzero;stroke:none"
             id="path228" />
        </g>
        <g
           id="g230"
           transform="translate(504.3471,56.748)">
          <path
             d="m 0,0 c -0.939,-1.16 -2.02,-1.74 -3.238,-1.74 -1.666,0 -2.5,0.707 -2.5,2.121 0,0.854 0.384,1.595 1.154,2.221 0.771,0.627 1.766,0.939 2.984,0.939 0.305,0 0.838,-0.084 1.6,-0.254 z m 2.412,-0.039 v 4.875 c 0,1.955 -0.447,3.382 -1.34,4.279 -0.892,0.897 -2.326,1.346 -4.297,1.346 -0.736,0 -1.509,-0.134 -2.318,-0.4 C -6.35,9.794 -6.982,9.475 -7.439,9.102 l 1.015,-2.018 c 0.813,0.812 1.971,1.219 3.479,1.219 C -0.982,8.303 0,7.202 0,5.002 c -0.645,0.22 -1.219,0.33 -1.727,0.33 -1.871,0 -3.41,-0.477 -4.615,-1.429 C -7.549,2.951 -8.15,1.785 -8.15,0.406 c 0,-1.151 0.39,-2.114 1.173,-2.888 0.784,-0.775 1.707,-1.163 2.774,-1.163 1.99,0 3.467,0.606 4.432,1.817 0.21,-0.644 0.56,-1.106 1.046,-1.385 0.487,-0.279 1.221,-0.418 2.204,-0.418 v 1.205 c -0.711,0.399 -1.067,1.194 -1.067,2.387"
             style="fill:#ffffff;fill-opacity:1;fill-rule:nonzero;stroke:none"
             id="path232" />
        </g>
        <g
           id="g234"
           transform="translate(516.1909,55.1348)">
          <path
             d="M 0,0 C -0.855,0 -1.475,0.242 -1.861,0.725 -2.246,1.207 -2.438,2.02 -2.438,3.162 v 6.754 h 3.733 v 1.904 h -3.733 v 3.77 L -4.85,14.664 V 11.82 H -6.424 V 9.916 H -4.85 V 2.197 c 0,-1.218 0.37,-2.228 1.11,-3.028 0.742,-0.8 1.648,-1.2 2.724,-1.2 1.194,0 2.289,0.127 3.287,0.381 L 1.916,0.471 C 1.256,0.157 0.617,0 0,0"
             style="fill:#ffffff;fill-opacity:1;fill-rule:nonzero;stroke:none"
             id="path236" />
        </g>
        <g
           id="g238"
           transform="translate(523.1967,72.0957)">
          <path
             d="m 0,0 c -0.416,0 -0.766,-0.144 -1.055,-0.432 -0.287,-0.287 -0.431,-0.638 -0.431,-1.052 0,-0.415 0.146,-0.769 0.437,-1.061 0.293,-0.292 0.643,-0.437 1.049,-0.437 0.414,0 0.768,0.145 1.059,0.437 0.293,0.292 0.439,0.646 0.439,1.061 0,0.406 -0.146,0.755 -0.439,1.047 C 0.768,-0.146 0.414,0 0,0"
             style="fill:#ffffff;fill-opacity:1;fill-rule:nonzero;stroke:none"
             id="path240" />
        </g>
        <g
           id="g242"
           transform="translate(520.0092,64.9238)">
          <path
             d="M 0,0 H 1.867 V -11.566 H 4.279 V 2.031 L 0,2.031 Z"
             style="fill:#ffffff;fill-opacity:1;fill-rule:nonzero;stroke:none"
             id="path244" />
        </g>
        <g
           id="g246"
           transform="translate(534.1498,55.1348)">
          <path
             d="m 0,0 c -1.396,0 -2.488,0.418 -3.275,1.251 -0.787,0.833 -1.18,2.046 -1.18,3.638 0,1.599 0.385,2.857 1.154,3.776 0.772,0.919 1.813,1.378 3.123,1.378 0.602,0 1.213,-0.11 1.834,-0.33 C 2.279,9.492 2.713,9.26 2.959,9.014 l 1.193,1.701 c -0.39,0.313 -0.994,0.618 -1.816,0.914 -0.82,0.297 -1.582,0.445 -2.285,0.445 -2.184,0 -3.905,-0.656 -5.16,-1.969 -1.258,-1.311 -1.885,-3.05 -1.885,-5.216 0,-2.125 0.605,-3.809 1.814,-5.053 1.211,-1.244 2.742,-1.867 4.596,-1.867 1.914,0 3.518,0.42 4.813,1.258 L 3.275,1.258 C 2.176,0.42 1.084,0 0,0"
             style="fill:#ffffff;fill-opacity:1;fill-rule:nonzero;stroke:none"
             id="path248" />
        </g>
        <g
           id="g250"
           transform="translate(548.2905,56.748)">
          <path
             d="m 0,0 c -0.939,-1.16 -2.018,-1.74 -3.236,-1.74 -1.668,0 -2.502,0.707 -2.502,2.121 0,0.854 0.384,1.595 1.156,2.221 0.769,0.627 1.764,0.939 2.982,0.939 0.305,0 0.838,-0.084 1.6,-0.254 z m 2.412,-0.039 v 4.875 c 0,1.955 -0.445,3.382 -1.34,4.279 -0.892,0.897 -2.324,1.346 -4.297,1.346 -0.736,0 -1.507,-0.134 -2.316,-0.4 C -6.35,9.794 -6.982,9.475 -7.439,9.102 l 1.015,-2.018 c 0.813,0.812 1.973,1.219 3.479,1.219 C -0.98,8.303 0,7.202 0,5.002 c -0.643,0.22 -1.219,0.33 -1.727,0.33 -1.869,0 -3.408,-0.477 -4.615,-1.429 C -7.547,2.951 -8.15,1.785 -8.15,0.406 c 0,-1.151 0.392,-2.114 1.173,-2.888 0.784,-0.775 1.709,-1.163 2.776,-1.163 1.988,0 3.465,0.606 4.43,1.817 0.212,-0.644 0.56,-1.106 1.046,-1.385 0.489,-0.279 1.223,-0.418 2.204,-0.418 v 1.205 c -0.711,0.399 -1.067,1.194 -1.067,2.387"
             style="fill:#ffffff;fill-opacity:1;fill-rule:nonzero;stroke:none"
             id="path252" />
        </g>
        <g
           id="g254"
           transform="translate(564.6635,72.0957)">
          <path
             d="m 0,0 c -0.414,0 -0.766,-0.144 -1.053,-0.432 -0.289,-0.287 -0.431,-0.638 -0.431,-1.052 0,-0.415 0.144,-0.769 0.437,-1.061 0.291,-0.292 0.641,-0.437 1.047,-0.437 0.416,0 0.768,0.145 1.061,0.437 0.291,0.292 0.437,0.646 0.437,1.061 0,0.406 -0.146,0.755 -0.437,1.047 C 0.768,-0.146 0.416,0 0,0"
             style="fill:#ffffff;fill-opacity:1;fill-rule:nonzero;stroke:none"
             id="path256" />
        </g>
        <g
           id="g258"
           transform="translate(561.478,64.9238)">
          <path
             d="M 0,0 H 1.865 V -11.566 H 4.277 V 2.031 L 0,2.031 Z"
             style="fill:#ffffff;fill-opacity:1;fill-rule:nonzero;stroke:none"
             id="path260" />
        </g>
        <g
           id="g262"
           transform="translate(575.8217,67.209)">
          <path
             d="m 0,0 c -1.803,0 -3.102,-0.669 -3.898,-2.006 l -0.762,1.752 h -1.651 v -13.598 h 2.413 v 10.106 c 0.322,0.482 0.783,0.889 1.384,1.219 0.6,0.33 1.176,0.496 1.727,0.496 1.023,0 1.754,-0.291 2.189,-0.87 0.436,-0.579 0.655,-1.593 0.655,-3.04 v -7.911 h 2.412 v 8.418 C 4.469,-1.812 2.979,0 0,0"
             style="fill:#ffffff;fill-opacity:1;fill-rule:nonzero;stroke:none"
             id="path264" />
        </g>
        <g
           id="g266"
           transform="translate(586.0131,71.043)">
          <path
             d="m 0,0 c -0.854,-0.99 -1.281,-2.354 -1.281,-4.088 h -1.981 v -2.031 h 1.981 v -11.567 h 2.412 v 11.567 h 2.767 v 2.031 H 1.131 c -0.043,0.245 -0.065,0.483 -0.065,0.711 0,0.855 0.241,1.561 0.717,2.119 0.479,0.559 1.086,0.838 1.822,0.838 0.424,0 0.881,-0.084 1.372,-0.254 L 5.65,1.104 C 4.846,1.357 4.092,1.484 3.391,1.484 1.984,1.484 0.855,0.99 0,0"
             style="fill:#ffffff;fill-opacity:1;fill-rule:nonzero;stroke:none"
             id="path268" />
        </g>
        <g
           id="g270"
           transform="translate(601.0873,56.4434)">
          <path
             d="m 0,0 c -0.639,-0.914 -1.52,-1.371 -2.646,-1.371 -2.413,0 -3.618,1.705 -3.618,5.115 0,1.574 0.328,2.811 0.983,3.707 0.656,0.898 1.535,1.346 2.635,1.346 2.404,0 3.605,-1.684 3.605,-5.053 C 0.959,2.162 0.641,0.914 0,0 m -2.646,10.766 c -1.844,0 -3.333,-0.647 -4.463,-1.937 -1.129,-1.29 -1.694,-2.985 -1.694,-5.085 0,-2.166 0.541,-3.889 1.625,-5.166 1.082,-1.278 2.594,-1.918 4.532,-1.918 1.896,0 3.394,0.633 4.494,1.899 1.101,1.265 1.65,2.994 1.65,5.185 0,2.201 -0.537,3.922 -1.611,5.161 -1.076,1.24 -2.586,1.861 -4.533,1.861"
             style="fill:#ffffff;fill-opacity:1;fill-rule:nonzero;stroke:none"
             id="path272" />
        </g>
        <g
           id="g274"
           transform="translate(609.6498,64.7832)">
          <path
             d="M 0,0 V 2.172 H -2.412 V -11.426 H 0 v 7.795 c 0,1.11 0.318,2.057 0.957,2.844 0.641,0.787 1.387,1.182 2.242,1.182 0.533,0 1.063,-0.183 1.586,-0.547 L 5.789,2.197 C 4.977,2.35 4.354,2.426 3.922,2.426 2.188,2.426 0.879,1.617 0,0"
             style="fill:#ffffff;fill-opacity:1;fill-rule:nonzero;stroke:none"
             id="path276" />
        </g>
        <g
           id="g278"
           transform="translate(630.81,67.209)">
          <path
             d="M 0,0 C -0.777,0 -1.535,-0.174 -2.271,-0.521 -3.008,-0.868 -3.512,-1.3 -3.783,-1.816 -4.561,-0.605 -5.924,0 -7.871,0 c -1.397,0 -2.561,-0.609 -3.49,-1.828 l -0.801,1.574 h -1.574 v -13.598 h 2.412 v 10.03 c 0.228,0.449 0.615,0.859 1.162,1.232 0.545,0.372 1.06,0.559 1.543,0.559 0.828,0 1.496,-0.194 1.998,-0.578 0.504,-0.385 0.756,-0.912 0.756,-1.58 v -9.663 h 2.412 v 10.055 c 0.187,0.457 0.533,0.865 1.041,1.226 0.508,0.36 1.055,0.54 1.639,0.54 1.853,0 2.779,-1.072 2.779,-3.213 v -8.608 h 2.412 v 9.09 c 0,1.507 -0.385,2.678 -1.154,3.511 C 2.492,-0.418 1.406,0 0,0"
             style="fill:#ffffff;fill-opacity:1;fill-rule:nonzero;stroke:none"
             id="path280" />
        </g>
        <g
           id="g282"
           transform="translate(646.0307,56.748)">
          <path
             d="m 0,0 c -0.939,-1.16 -2.02,-1.74 -3.238,-1.74 -1.666,0 -2.5,0.707 -2.5,2.121 0,0.854 0.384,1.595 1.154,2.221 0.771,0.627 1.766,0.939 2.984,0.939 0.305,0 0.838,-0.084 1.6,-0.254 z m 2.412,-0.039 v 4.875 c 0,1.955 -0.447,3.382 -1.34,4.279 -0.892,0.897 -2.326,1.346 -4.297,1.346 -0.736,0 -1.509,-0.134 -2.318,-0.4 C -6.35,9.794 -6.982,9.475 -7.439,9.102 l 1.015,-2.018 c 0.813,0.812 1.971,1.219 3.479,1.219 C -0.982,8.303 0,7.202 0,5.002 c -0.645,0.22 -1.219,0.33 -1.727,0.33 -1.871,0 -3.41,-0.477 -4.615,-1.429 C -7.549,2.951 -8.15,1.785 -8.15,0.406 c 0,-1.151 0.39,-2.114 1.173,-2.888 0.784,-0.775 1.707,-1.163 2.774,-1.163 1.99,0 3.467,0.606 4.432,1.817 0.21,-0.644 0.56,-1.106 1.046,-1.385 0.487,-0.279 1.221,-0.418 2.204,-0.418 v 1.205 c -0.711,0.399 -1.067,1.194 -1.067,2.387"
             style="fill:#ffffff;fill-opacity:1;fill-rule:nonzero;stroke:none"
             id="path284" />
        </g>
        <g
           id="g286"
           transform="translate(657.8725,55.1348)">
          <path
             d="M 0,0 C -0.854,0 -1.475,0.242 -1.859,0.725 -2.244,1.207 -2.438,2.02 -2.438,3.162 v 6.754 h 3.733 v 1.904 h -3.733 v 3.77 L -4.85,14.664 V 11.82 H -6.424 V 9.916 H -4.85 V 2.197 c 0,-1.218 0.371,-2.228 1.112,-3.028 0.74,-0.8 1.648,-1.2 2.722,-1.2 1.194,0 2.289,0.127 3.289,0.381 L 1.918,0.471 C 1.258,0.157 0.619,0 0,0"
             style="fill:#ffffff;fill-opacity:1;fill-rule:nonzero;stroke:none"
             id="path288" />
        </g>
        <g
           id="g290"
           transform="translate(664.8784,72.0957)">
          <path
             d="m 0,0 c -0.414,0 -0.766,-0.144 -1.053,-0.432 -0.289,-0.287 -0.431,-0.638 -0.431,-1.052 0,-0.415 0.144,-0.769 0.437,-1.061 0.291,-0.292 0.641,-0.437 1.047,-0.437 0.416,0 0.768,0.145 1.061,0.437 0.291,0.292 0.437,0.646 0.437,1.061 0,0.406 -0.146,0.755 -0.437,1.047 C 0.768,-0.146 0.416,0 0,0"
             style="fill:#ffffff;fill-opacity:1;fill-rule:nonzero;stroke:none"
             id="path292" />
        </g>
        <g
           id="g294"
           transform="translate(661.6928,64.9238)">
          <path
             d="M 0,0 H 1.865 V -11.566 H 4.277 V 2.031 L 0,2.031 Z"
             style="fill:#ffffff;fill-opacity:1;fill-rule:nonzero;stroke:none"
             id="path296" />
        </g>
        <g
           id="g298"
           transform="translate(675.8334,55.1348)">
          <path
             d="m 0,0 c -1.396,0 -2.488,0.418 -3.275,1.251 -0.787,0.833 -1.182,2.046 -1.182,3.638 0,1.599 0.385,2.857 1.156,3.776 0.77,0.919 1.811,1.378 3.123,1.378 0.6,0 1.211,-0.11 1.834,-0.33 C 2.277,9.492 2.713,9.26 2.957,9.014 l 1.193,1.701 c -0.388,0.313 -0.994,0.618 -1.814,0.914 -0.822,0.297 -1.584,0.445 -2.285,0.445 -2.184,0 -3.905,-0.656 -5.162,-1.969 -1.256,-1.311 -1.885,-3.05 -1.885,-5.216 0,-2.125 0.605,-3.809 1.816,-5.053 1.209,-1.244 2.742,-1.867 4.596,-1.867 1.912,0 3.516,0.42 4.811,1.258 L 3.275,1.258 C 2.174,0.42 1.082,0 0,0"
             style="fill:#ffffff;fill-opacity:1;fill-rule:nonzero;stroke:none"
             id="path300" />
        </g>
        <g
           id="g302"
           transform="translate(689.9741,56.748)">
          <path
             d="m 0,0 c -0.939,-1.16 -2.018,-1.74 -3.236,-1.74 -1.668,0 -2.502,0.707 -2.502,2.121 0,0.854 0.384,1.595 1.156,2.221 0.769,0.627 1.764,0.939 2.982,0.939 0.305,0 0.838,-0.084 1.6,-0.254 z m 2.412,-0.039 v 4.875 c 0,1.955 -0.445,3.382 -1.34,4.279 -0.892,0.897 -2.324,1.346 -4.297,1.346 -0.736,0 -1.507,-0.134 -2.316,-0.4 C -6.35,9.794 -6.982,9.475 -7.439,9.102 l 1.015,-2.018 c 0.813,0.812 1.973,1.219 3.479,1.219 C -0.98,8.303 0,7.202 0,5.002 c -0.643,0.22 -1.219,0.33 -1.727,0.33 -1.869,0 -3.408,-0.477 -4.615,-1.429 C -7.547,2.951 -8.15,1.785 -8.15,0.406 c 0,-1.151 0.392,-2.114 1.173,-2.888 0.784,-0.775 1.709,-1.163 2.776,-1.163 1.988,0 3.465,0.606 4.43,1.817 0.212,-0.644 0.56,-1.106 1.046,-1.385 0.489,-0.279 1.223,-0.418 2.204,-0.418 v 1.205 c -0.711,0.399 -1.067,1.194 -1.067,2.387"
             style="fill:#ffffff;fill-opacity:1;fill-rule:nonzero;stroke:none"
             id="path304" />
        </g>
      </g>
    </g>
  </g>
</svg>
